<svg xmlns="http://www.w3.org/2000/svg" viewBox="0 0 1200 800"><defs><linearGradient id="bg" x2="1" y2="1"><stop stop-color="#090a0c"/><stop offset="1" stop-color="#151117"/></linearGradient><radialGradient id="glow"><stop stop-color="#ef1f2b" stop-opacity=".28"/><stop offset="1" stop-color="#ef1f2b" stop-opacity="0"/></radialGradient><filter id="s"><feDropShadow dx="0" dy="24" stdDeviation="24" flood-color="#000" flood-opacity=".6"/></filter></defs><rect width="1200" height="800" fill="url(#bg)"/><circle cx="620" cy="405" r="360" fill="url(#glow)"/><path d="M0 655H1200" stroke="#ef1f2b" stroke-opacity=".16"/><g transform="translate(175 170)" filter="url(#s)"><path d="M40 0h720q40 0 40 40v395q0 40-40 40H40q-40 0-40-40V40Q0 0 40 0z" fill="#16191e" stroke="#555b64" stroke-width="6"/><path d="M22 48h756v92H22z" fill="#111318"/><path d="M22 332h756v88H22z" fill="#0f1114"/><g fill="#08090b" stroke="#4a5059" stroke-width="4"><rect x="58" y="72" width="140" height="98" rx="9"/><rect x="223" y="72" width="126" height="98" rx="9"/><rect x="374" y="72" width="155" height="98" rx="9"/><rect x="554" y="72" width="162" height="98" rx="9"/><rect x="58" y="286" width="178" height="100" rx="9"/><rect x="258" y="286" width="165" height="100" rx="9"/><rect x="446" y="286" width="126" height="100" rx="9"/><rect x="595" y="286" width="121" height="100" rx="9"/></g><g stroke="#c6cad0" stroke-width="4" opacity=".8"><path d="M76 90v62M92 90v62M108 90v62M124 90v62M140 90v62M156 90v62M172 90v62"/><path d="M241 90v62M257 90v62M273 90v62M289 90v62M305 90v62M321 90v62"/><path d="M392 90v62M408 90v62M424 90v62M440 90v62M456 90v62M472 90v62M488 90v62M504 90v62"/><path d="M575 90v62M591 90v62M607 90v62M623 90v62M639 90v62M655 90v62M671 90v62M687 90v62"/></g><path d="M70 220h640" stroke="#2a2e34" stroke-width="9"/><path d="M70 248h470" stroke="#2a2e34" stroke-width="9"/><g fill="#858b94"><circle cx="35" cy="35" r="9"/><circle cx="765" cy="35" r="9"/><circle cx="35" cy="440" r="9"/><circle cx="765" cy="440" r="9"/></g></g><g transform="translate(790 525) rotate(-10)" filter="url(#s)"><path d="M0 28Q0 0 28 0h175q28 0 28 28v58q0 28-28 28H28Q0 114 0 86z" fill="#111318" stroke="#707681" stroke-width="5"/><circle cx="116" cy="56" r="21" fill="none" stroke="#e5e7eb" stroke-width="4"/><path d="M116 35v42M95 56h42" stroke="#e5e7eb" stroke-width="3"/><circle cx="52" cy="57" r="10" fill="#262b32"/><circle cx="180" cy="57" r="10" fill="#262b32"/></g></svg>